<svg id="Calque_1" data-name="Calque 1" xmlns="http://www.w3.org/2000/svg" xmlns:xlink="http://www.w3.org/1999/xlink" viewBox="0 0 1400 300"><defs><style>.cls-1{fill:url(#linear-gradient);}.cls-2{fill:#ed1c24;}.cls-3{fill:url(#Dégradé_knowledge);}.cls-4{fill:url(#Dégradé_Knowledge_2);}.cls-5{fill:url(#Dégradé_knowledge-2);}.cls-6{fill:url(#linear-gradient-3);}.cls-7{font-size:256.46px;fill:#e65c4f;font-family:FredokaOne-Regular, Fredoka One;}.cls-8{fill:url(#linear-gradient-4);}.cls-9{fill:url(#Dégradé_knowledge-3);}.cls-10{fill:url(#Dégradé_Knowledge_2-2);}.cls-11{fill:url(#Dégradé_knowledge-4);}.cls-12{fill:url(#linear-gradient-6);}</style><linearGradient id="linear-gradient" x1="154.4" y1="-518.32" x2="160.27" y2="-518.32" gradientTransform="matrix(0.97, 0.25, 0.25, -0.97, 121.83, -474.32)" gradientUnits="userSpaceOnUse"><stop offset="0" stop-color="#faa31a"/><stop offset="0.05" stop-color="#faa82b"/><stop offset="0.15" stop-color="#fcb755"/><stop offset="0.28" stop-color="#fdcf8f"/><stop offset="0.45" stop-color="#fdf0df"/><stop offset="0.5" stop-color="#fdfdfe"/><stop offset="0.63" stop-color="#fde4c3"/><stop offset="0.92" stop-color="#fbb042"/><stop offset="1" stop-color="#faa31a"/></linearGradient><linearGradient id="Dégradé_knowledge" x1="105.59" y1="-498.44" x2="182.49" y2="-501.5" gradientTransform="matrix(0.97, 0.25, 0.25, -0.97, 121.83, -474.32)" gradientUnits="userSpaceOnUse"><stop offset="0" stop-color="#e65c4f"/><stop offset="0.5" stop-color="#fff"/><stop offset="0.59" stop-color="#f8d4d0"/><stop offset="0.68" stop-color="#f2a9a2"/><stop offset="0.78" stop-color="#ed887e"/><stop offset="0.86" stop-color="#e97064"/><stop offset="0.94" stop-color="#e76154"/><stop offset="1" stop-color="#e65c4f"/></linearGradient><linearGradient id="Dégradé_Knowledge_2" x1="100.71" y1="280.73" x2="180.23" y2="343.65" gradientTransform="matrix(0.97, 0.25, -0.25, 0.97, 31.69, -181.82)" gradientUnits="userSpaceOnUse"><stop offset="0" stop-color="#e65c4f"/><stop offset="0.5" stop-color="#78a6c8" stop-opacity="0.4"/><stop offset="0.6" stop-color="#9891a5" stop-opacity="0.57"/><stop offset="0.69" stop-color="#b47e86" stop-opacity="0.73"/><stop offset="0.78" stop-color="#ca6f6e" stop-opacity="0.84"/><stop offset="0.86" stop-color="#d9655d" stop-opacity="0.93"/><stop offset="0.94" stop-color="#e35e53" stop-opacity="0.98"/><stop offset="1" stop-color="#e65c4f"/></linearGradient><linearGradient id="Dégradé_knowledge-2" x1="138.11" y1="-535.41" x2="91.79" y2="-566.87" xlink:href="#Dégradé_knowledge"/><linearGradient id="linear-gradient-3" x1="47.9" y1="-497.2" x2="144.9" y2="-594.2" xlink:href="#linear-gradient"/><linearGradient id="linear-gradient-4" x1="963.39" y1="-310.17" x2="969.26" y2="-310.17" xlink:href="#linear-gradient"/><linearGradient id="Dégradé_knowledge-3" x1="914.59" y1="-290.29" x2="991.49" y2="-293.35" xlink:href="#Dégradé_knowledge"/><linearGradient id="Dégradé_Knowledge_2-2" x1="909" y1="69.97" x2="988.52" y2="132.89" xlink:href="#Dégradé_Knowledge_2"/><linearGradient id="Dégradé_knowledge-4" x1="947.1" y1="-327.26" x2="900.79" y2="-358.72" xlink:href="#Dégradé_knowledge"/><linearGradient id="linear-gradient-6" x1="856.89" y1="-289.05" x2="953.89" y2="-386.05" xlink:href="#linear-gradient"/></defs><path class="cls-1" d="M147.88,67.46a17,17,0,0,1-2.95-.48,16.63,16.63,0,0,1-2.72-1C144.17,66.42,146,66.9,147.88,67.46Z"/><path class="cls-2" d="M477,228.26l-1.8.61c-.29.1-.68.18-1,.28C475.09,228.85,476.07,228.57,477,228.26Z"/><path class="cls-1" d="M147.88,67.46a17,17,0,0,1-2.95-.48,16.63,16.63,0,0,1-2.72-1C144.17,66.42,146,66.9,147.88,67.46Z"/><path class="cls-3" d="M118.26,43.33a94.27,94.27,0,0,0-40,1.72,99.25,99.25,0,0,1,47-13.81,101,101,0,0,1,24.31,1.92c2.39.53,4.79,1.05,7.05,1.72A17.32,17.32,0,0,1,166,54.62a16.86,16.86,0,0,1-4.57,7.94A93.67,93.67,0,0,0,118.26,43.33Z"/><path class="cls-4" d="M160,220.19c-.89.31-1.87.6-2.74.83h0a101.34,101.34,0,0,1-24.21,4C88.2,226.8,49.18,198.89,35.6,159.12a17.25,17.25,0,0,0,3.56-9.28h0a67.06,67.06,0,0,1-.51-12c1.44-30.85,24-55.64,52.76-60.59a63.12,63.12,0,0,0-25.64,61.43c5.65,34.48,38.75,57.71,73.8,51.93,2.17-.35,4.37-.86,6.5-1.4a48.91,48.91,0,0,0,5.2-1.64h0a17.52,17.52,0,0,1,11.47,2.41c.61.43,1.22.86,1.75,1.26a16.85,16.85,0,0,1,5.56,8.56A17.15,17.15,0,0,1,160,220.19Z"/><path class="cls-5" d="M161.43,62.47A17.35,17.35,0,0,1,148,67.4h0A44.06,44.06,0,0,0,142.29,66a65.63,65.63,0,0,0-51,11.16C62.55,82.05,40,106.93,38.56,137.78c-.12,2.22-.07,4.49,0,6.59a51.8,51.8,0,0,0,.49,5.45h0a17.28,17.28,0,0,1-3.56,9.28,93.54,93.54,0,0,1-5-27.1C29,95.35,48.42,62.63,78.32,45a95.26,95.26,0,0,1,83.11,17.5Z"/><path class="cls-6" d="M161.43,62.47A17.35,17.35,0,0,1,148,67.4h0A44.06,44.06,0,0,0,142.29,66a65.63,65.63,0,0,0-51,11.16C62.55,82.05,40,106.93,38.56,137.78c-.12,2.22-.07,4.49,0,6.59a51.8,51.8,0,0,0,.49,5.45h0a17.28,17.28,0,0,1-3.56,9.28c-.19-.68,2.32-7.61,2.62-10.88h0a51.56,51.56,0,0,1-.49-5.45,51.74,51.74,0,0,1,0-6.59c1.44-30.85,24-55.64,52.76-60.59A65.82,65.82,0,0,1,118,64.1a66.6,66.6,0,0,1,23.38.33c2,.42,3.83.9,5.69,1.38h0C151.89,66.24,161,62.09,161.43,62.47Z"/><text class="cls-7" transform="translate(165.75 222.23)">o</text><text class="cls-7" transform="translate(315.18 225.46)">d</text><text class="cls-7" transform="translate(456.75 225.46)">i</text><text class="cls-7" transform="translate(511.8 225.46)">n</text><text class="cls-7" transform="translate(661.23 225.46)">g</text><path class="cls-8" d="M983.19,67.46A16.38,16.38,0,0,1,977.52,66C979.49,66.42,981.35,66.9,983.19,67.46Z"/><path class="cls-2" d="M1312.28,228.26l-1.79.61c-.3.1-.68.18-1,.28C1310.41,228.85,1311.39,228.57,1312.28,228.26Z"/><path class="cls-8" d="M983.19,67.46A16.38,16.38,0,0,1,977.52,66C979.49,66.42,981.35,66.9,983.19,67.46Z"/><path class="cls-9" d="M953.58,43.33a94.26,94.26,0,0,0-40,1.72,99.21,99.21,0,0,1,47-13.81,101,101,0,0,1,24.32,1.92c2.39.53,4.78,1.05,7.05,1.72a17.33,17.33,0,0,1,9.36,19.74,16.86,16.86,0,0,1-4.57,7.94A93.72,93.72,0,0,0,953.58,43.33Z"/><path class="cls-10" d="M995.33,220.19c-.89.31-1.87.6-2.74.83h0a101.43,101.43,0,0,1-24.21,4c-44.86,1.82-83.88-26.09-97.47-65.86a17.17,17.17,0,0,0,3.56-9.28h0a51.56,51.56,0,0,1-.49-5.45,53.65,53.65,0,0,1,0-6.59c1.44-30.85,24-55.64,52.77-60.59a63.13,63.13,0,0,0-25.65,61.43c5.66,34.48,38.75,57.71,73.81,51.93,2.16-.35,4.37-.86,6.49-1.4a49.08,49.08,0,0,0,5.21-1.64h0a17.53,17.53,0,0,1,11.47,2.41c.61.43,1.22.86,1.75,1.26a16.91,16.91,0,0,1,5.56,8.56A17.16,17.16,0,0,1,995.33,220.19Z"/><path class="cls-11" d="M996.75,62.47A17.35,17.35,0,0,1,983.3,67.4h0A44.46,44.46,0,0,0,977.61,66a65.64,65.64,0,0,0-51,11.16c-28.77,4.86-51.32,29.74-52.76,60.59a65.72,65.72,0,0,0,0,6.59,49.26,49.26,0,0,0,.49,5.45h0a17.28,17.28,0,0,1-3.56,9.28,93.54,93.54,0,0,1-5-27.1c-1.49-36.65,17.94-69.37,47.84-87a95.26,95.26,0,0,1,83.11,17.5Z"/><path class="cls-12" d="M996.75,62.47A17.35,17.35,0,0,1,983.3,67.4h0A44.46,44.46,0,0,0,977.61,66a65.64,65.64,0,0,0-51,11.16c-28.77,4.86-51.32,29.74-52.76,60.59a65.72,65.72,0,0,0,0,6.59,49.26,49.26,0,0,0,.49,5.45h0a17.28,17.28,0,0,1-3.56,9.28c-.19-.68,2.32-7.61,2.61-10.88h0a51.56,51.56,0,0,1-.49-5.45,53.65,53.65,0,0,1,0-6.59c1.44-30.85,24-55.64,52.77-60.59A65.82,65.82,0,0,1,953.29,64.1a66.54,66.54,0,0,1,23.37.33c2,.42,3.83.9,5.7,1.38h0C987.21,66.24,996.31,62.09,996.75,62.47Z"/><text class="cls-7" transform="translate(1015.15 225.46)">i</text><text class="cls-7" transform="translate(1078.07 225.46)">t</text><text class="cls-7" transform="translate(1196.04 225.46)">y</text></svg>