<svg id="Calque_1" data-name="Calque 1" xmlns="http://www.w3.org/2000/svg" xmlns:xlink="http://www.w3.org/1999/xlink" viewBox="0 0 300 300"><defs><style>.cls-1{fill:#ed1c24;}.cls-2{fill:url(#linear-gradient);}.cls-3{fill:url(#Dégradé_knowledge);}.cls-4{fill:url(#Dégradé_Knowledge_2);}.cls-5{fill:url(#Dégradé_knowledge-2);}.cls-6{fill:url(#linear-gradient-3);}.cls-7{fill:url(#Dégradé_knowledge-3);}.cls-8{fill:url(#Dégradé_Knowledge_2-2);}</style><linearGradient id="linear-gradient" x1="156.13" y1="214.37" x2="161.82" y2="214.37" gradientTransform="matrix(1, 0, 0, -1, 14.36, 286.35)" gradientUnits="userSpaceOnUse"><stop offset="0" stop-color="#faa31a"/><stop offset="0.05" stop-color="#faa82b"/><stop offset="0.15" stop-color="#fcb755"/><stop offset="0.28" stop-color="#fdcf8f"/><stop offset="0.45" stop-color="#fdf0df"/><stop offset="0.5" stop-color="#fdfdfe"/><stop offset="0.63" stop-color="#fde4c3"/><stop offset="0.92" stop-color="#fbb042"/><stop offset="1" stop-color="#faa31a"/></linearGradient><linearGradient id="Dégradé_knowledge" x1="108.85" y1="233.63" x2="183.35" y2="230.67" gradientTransform="matrix(1, 0, 0, -1, 14.36, 286.35)" gradientUnits="userSpaceOnUse"><stop offset="0" stop-color="#e65c4f"/><stop offset="0.5" stop-color="#fff"/><stop offset="0.59" stop-color="#f8d4d0"/><stop offset="0.68" stop-color="#f2a9a2"/><stop offset="0.78" stop-color="#ed887e"/><stop offset="0.86" stop-color="#e97064"/><stop offset="0.94" stop-color="#e76154"/><stop offset="1" stop-color="#e65c4f"/></linearGradient><linearGradient id="Dégradé_Knowledge_2" x1="103.16" y1="138.04" x2="180.19" y2="198.99" gradientUnits="userSpaceOnUse"><stop offset="0" stop-color="#e65c4f"/><stop offset="0.5" stop-color="#78a6c8" stop-opacity="0.4"/><stop offset="0.6" stop-color="#9891a5" stop-opacity="0.57"/><stop offset="0.69" stop-color="#b47e86" stop-opacity="0.73"/><stop offset="0.78" stop-color="#ca6f6e" stop-opacity="0.84"/><stop offset="0.86" stop-color="#d9655d" stop-opacity="0.93"/><stop offset="0.94" stop-color="#e35e53" stop-opacity="0.98"/><stop offset="1" stop-color="#e65c4f"/></linearGradient><linearGradient id="Dégradé_knowledge-2" x1="140.35" y1="197.81" x2="95.48" y2="167.34" xlink:href="#Dégradé_knowledge"/><linearGradient id="linear-gradient-3" x1="52.96" y1="234.83" x2="146.93" y2="140.86" xlink:href="#linear-gradient"/><linearGradient id="Dégradé_knowledge-3" x1="57.73" y1="86.62" x2="67.04" y2="183.97" xlink:href="#Dégradé_knowledge"/><linearGradient id="Dégradé_Knowledge_2-2" x1="156.57" y1="77.2" x2="229.37" y2="144.08" xlink:href="#Dégradé_Knowledge_2"/></defs><path class="cls-1" d="M200.06,244.14l-1.73.59c-.29.1-.66.17-1,.27C198.25,244.71,199.2,244.44,200.06,244.14Z"/><path class="cls-2" d="M175.44,71.37a16.41,16.41,0,0,1-2.88.26,15.48,15.48,0,0,1-2.79-.25C171.72,71.29,173.58,71.29,175.44,71.37Z"/><path class="cls-2" d="M175.44,71.37a16.41,16.41,0,0,1-2.88.26,15.48,15.48,0,0,1-2.79-.25C171.72,71.29,173.58,71.29,175.44,71.37Z"/><path class="cls-3" d="M141.78,56a91.43,91.43,0,0,0-37,11.38,96.3,96.3,0,0,1,40.64-24.43,98,98,0,0,1,23.27-4.13c2.37-.1,4.74-.19,7-.11a16.77,16.77,0,0,1,13.6,16.21,16.28,16.28,0,0,1-2.34,8.56A90.84,90.84,0,0,0,141.78,56Z"/><path class="cls-4" d="M224.15,211.56c-.76.52-1.61,1-2.37,1.45h0a98.75,98.75,0,0,1-21.72,9.64c-41.61,12.66-85-4-107.47-37.92a16.66,16.66,0,0,0,1.07-9.57h0a48.38,48.38,0,0,1-1.79-5A51.84,51.84,0,0,1,90.24,164c-6.19-29.27,8.87-58,34.65-69.7a61.17,61.17,0,0,0-9,63.86c13.73,30.94,50.43,44.62,81.88,30.63,1.94-.85,3.89-1.87,5.74-2.89a47.32,47.32,0,0,0,4.48-2.81h0a16.93,16.93,0,0,1,11.34-.55c.68.26,1.36.51,1.95.76a16.27,16.27,0,0,1,7.31,6.66A16.62,16.62,0,0,1,224.15,211.56Z"/><path class="cls-5" d="M186.93,63.37a16.82,16.82,0,0,1-11.4,7.91h0a43.08,43.08,0,0,0-5.68.1,62.66,62.66,0,0,0-22,5.41A62,62,0,0,0,124.81,94.3C99,105.9,84,134.73,90.16,164c.43,2.11,1,4.23,1.62,6.17a50.89,50.89,0,0,0,1.8,5h0a16.74,16.74,0,0,1-1.07,9.57,90.43,90.43,0,0,1-11.34-24.17c-10.35-34-.14-69.42,23.57-93.28a92.29,92.29,0,0,1,82.19-3.91Z"/><path class="cls-6" d="M186.93,63.37a16.82,16.82,0,0,1-11.4,7.91h0a43.08,43.08,0,0,0-5.68.1,62.66,62.66,0,0,0-22,5.41A62,62,0,0,0,124.81,94.3C99,105.9,84,134.73,90.16,164c.43,2.11,1,4.23,1.62,6.17a50.89,50.89,0,0,0,1.8,5h0a16.74,16.74,0,0,1-1.07,9.57c-.34-.59.31-7.7-.21-10.83h0a50.12,50.12,0,0,1-1.79-5,51.49,51.49,0,0,1-1.63-6.18c-6.19-29.27,8.87-58,34.65-69.69a63.8,63.8,0,0,1,23.06-17.52,64.61,64.61,0,0,1,22-5.4c1.95-.09,3.81-.1,5.67-.1h0C178.91,69.24,186.42,63.12,186.93,63.37Z"/><path class="cls-7" d="M104.74,67.28C81,91.14,70.82,126.56,81.17,160.56a91.74,91.74,0,0,0,11.34,24.17,16.27,16.27,0,0,1-10,9.18,16.56,16.56,0,0,1-20.35-8.74c-.34-.85-.59-1.78-.94-2.62h0a100.56,100.56,0,0,1-4.9-23.27A95.81,95.81,0,0,1,104.74,67.28Z"/><path class="cls-8" d="M242.8,166.81c-.33,2.37-.83,4.66-1.34,6.94a16.54,16.54,0,0,1-18.59,9.88,9.47,9.47,0,0,1-1.61-.41c-.67-.26-1.35-.51-1.95-.76a16.83,16.83,0,0,1-9.7-15.71h0c.42-1.87.84-3.73,1.08-5.6a64.13,64.13,0,0,0-.66-22.68c-7.14-33.67-39.8-55.32-72.88-48.27a65.27,65.27,0,0,0-12.34,4A63.77,63.77,0,0,1,147.86,76.7a64.67,64.67,0,0,1,22-5.4c2-.09,3.81-.1,5.68-.1h0a16.5,16.5,0,0,0,11.4-7.91,95.67,95.67,0,0,1,56.64,79.81A92,92,0,0,1,242.8,166.81Z"/></svg>