<svg id="Calque_1" data-name="Calque 1" xmlns="http://www.w3.org/2000/svg" xmlns:xlink="http://www.w3.org/1999/xlink" viewBox="0 0 300 300"><defs><style>.cls-1{fill:url(#linear-gradient);}.cls-2{fill:#ed1c24;}.cls-3{fill:url(#Dégradé_knowledge);}.cls-4{fill:url(#Dégradé_Knowledge_2);}.cls-5{fill:url(#Dégradé_knowledge-2);}.cls-6{fill:url(#linear-gradient-3);}.cls-7{fill:url(#Dégradé_knowledge-3);}.cls-8{fill:url(#Dégradé_Knowledge_2-2);}</style><linearGradient id="linear-gradient" x1="156.32" y1="216.22" x2="162.06" y2="216.22" gradientTransform="matrix(1.06, 0, 0, -1.09, 5.78, 300.13)" gradientUnits="userSpaceOnUse"><stop offset="0" stop-color="#faa31a"/><stop offset="0.05" stop-color="#faa82b"/><stop offset="0.15" stop-color="#fcb755"/><stop offset="0.28" stop-color="#fdcf8f"/><stop offset="0.45" stop-color="#fdf0df"/><stop offset="0.5" stop-color="#fdfdfe"/><stop offset="0.63" stop-color="#fde4c3"/><stop offset="0.92" stop-color="#fbb042"/><stop offset="1" stop-color="#faa31a"/></linearGradient><linearGradient id="Dégradé_knowledge" x1="108.59" y1="235.66" x2="183.79" y2="232.66" gradientTransform="matrix(1.06, 0, 0, -1.09, 5.78, 300.13)" gradientUnits="userSpaceOnUse"><stop offset="0" stop-color="#e65c4f"/><stop offset="0.5" stop-color="#fff"/><stop offset="0.59" stop-color="#f8d4d0"/><stop offset="0.68" stop-color="#f2a9a2"/><stop offset="0.78" stop-color="#ed887e"/><stop offset="0.86" stop-color="#e97064"/><stop offset="0.94" stop-color="#e76154"/><stop offset="1" stop-color="#e65c4f"/></linearGradient><linearGradient id="Dégradé_Knowledge_2" x1="102.71" y1="136.82" x2="180.47" y2="198.35" gradientTransform="matrix(1.06, 0, 0, 1.09, -9.51, -11.28)" gradientUnits="userSpaceOnUse"><stop offset="0" stop-color="#e65c4f"/><stop offset="0.5" stop-color="#78a6c8" stop-opacity="0.4"/><stop offset="0.6" stop-color="#9891a5" stop-opacity="0.57"/><stop offset="0.69" stop-color="#b47e86" stop-opacity="0.73"/><stop offset="0.78" stop-color="#ca6f6e" stop-opacity="0.84"/><stop offset="0.86" stop-color="#d9655d" stop-opacity="0.93"/><stop offset="0.94" stop-color="#e35e53" stop-opacity="0.98"/><stop offset="1" stop-color="#e65c4f"/></linearGradient><linearGradient id="Dégradé_knowledge-2" x1="140.39" y1="199.5" x2="95.1" y2="168.74" xlink:href="#Dégradé_knowledge"/><linearGradient id="linear-gradient-3" x1="52.17" y1="236.87" x2="147.03" y2="142.01" xlink:href="#linear-gradient"/><linearGradient id="Dégradé_knowledge-3" x1="56.99" y1="87.26" x2="66.39" y2="185.53" xlink:href="#Dégradé_knowledge"/><linearGradient id="Dégradé_Knowledge_2-2" x1="156.62" y1="75.41" x2="230.11" y2="142.92" xlink:href="#Dégradé_Knowledge_2"/></defs><path class="cls-1" d="M177.3,64.34a17.93,17.93,0,0,1-3.09.28,15.22,15.22,0,0,1-3-.27C173.3,64.26,175.3,64.25,177.3,64.34Z"/><path class="cls-2" d="M200.06,244.14l-1.73.59c-.29.1-.66.17-1,.27C198.25,244.71,199.2,244.44,200.06,244.14Z"/><path class="cls-1" d="M177.3,64.34a17.93,17.93,0,0,1-3.09.28,15.22,15.22,0,0,1-3-.27C173.3,64.26,175.3,64.25,177.3,64.34Z"/><path class="cls-3" d="M141.17,47.45a96.27,96.27,0,0,0-39.75,12.48A103.89,103.89,0,0,1,170,28.58c2.54-.1,5.09-.2,7.54-.12a18.31,18.31,0,0,1,14.6,17.8,18.07,18.07,0,0,1-2.52,9.39A95.55,95.55,0,0,0,141.17,47.45Z"/><path class="cls-4" d="M229.59,218.25c-.81.56-1.72,1.12-2.54,1.59h0a104.64,104.64,0,0,1-23.31,10.57A101.29,101.29,0,0,1,88.38,188.78a18.64,18.64,0,0,0,1.15-10.5h0a56.33,56.33,0,0,1-1.92-5.48A55.72,55.72,0,0,1,85.86,166c-6.65-32.13,9.51-63.69,37.19-76.51a68.33,68.33,0,0,0-9.68,70.1,65.75,65.75,0,0,0,87.88,33.64c2.09-.94,4.18-2.06,6.17-3.18a54.38,54.38,0,0,0,4.81-3.08h0a17.71,17.71,0,0,1,12.17-.6c.73.28,1.46.55,2.09.83a17.67,17.67,0,0,1,7.84,7.31A18.52,18.52,0,0,1,229.59,218.25Z"/><path class="cls-5" d="M189.63,55.56a18,18,0,0,1-12.24,8.68h0a45.86,45.86,0,0,0-6.09.11,65.84,65.84,0,0,0-23.6,5.94A66.82,66.82,0,0,0,123,89.51C95.28,102.24,79.12,133.89,85.77,166c.46,2.32,1.1,4.64,1.75,6.78a56.33,56.33,0,0,0,1.92,5.48h0a18.64,18.64,0,0,1-1.15,10.5,100.55,100.55,0,0,1-12.17-26.54,104.32,104.32,0,0,1,25.3-102.4,97.07,97.07,0,0,1,88.21-4.28Z"/><path class="cls-6" d="M189.63,55.56a18,18,0,0,1-12.24,8.68h0a45.86,45.86,0,0,0-6.09.11,65.84,65.84,0,0,0-23.6,5.94A66.82,66.82,0,0,0,123,89.51C95.28,102.24,79.12,133.89,85.77,166c.46,2.32,1.1,4.64,1.75,6.78a56.33,56.33,0,0,0,1.92,5.48h0a18.64,18.64,0,0,1-1.15,10.5c-.36-.65.34-8.46-.22-11.89h0a56.33,56.33,0,0,1-1.92-5.48,55.72,55.72,0,0,1-1.75-6.78c-6.65-32.13,9.52-63.69,37.19-76.51A67.74,67.74,0,0,1,169.94,63c2.09-.09,4.09-.1,6.08-.11h0C181,62,189.08,55.28,189.63,55.56Z"/><path class="cls-7" d="M101.42,59.84a104.32,104.32,0,0,0-25.3,102.4,102,102,0,0,0,12.17,26.54,17.67,17.67,0,0,1-32.52.48c-.37-.93-.65-1.95-1-2.88h0a112,112,0,0,1-5.27-25.54C45.9,118.1,67.49,79.19,101.42,59.84Z"/><path class="cls-8" d="M249.61,169.11c-.36,2.61-.9,5.12-1.43,7.63a17.68,17.68,0,0,1-20,10.84,10,10,0,0,1-1.73-.45c-.72-.28-1.45-.56-2.09-.83A18.55,18.55,0,0,1,214,169h0c.44-2,.89-4.09,1.16-6.13a72,72,0,0,0-.72-24.91c-7.66-37-42.72-60.73-78.22-53A68.47,68.47,0,0,0,123,89.42,67.65,67.65,0,0,1,171.3,64.26c2.09-.1,4.09-.1,6.09-.11h0a17.68,17.68,0,0,0,12.24-8.68c33.12,14.85,57.49,47.67,60.8,87.62A103.1,103.1,0,0,1,249.61,169.11Z"/></svg>