<svg id="Calque_1" data-name="Calque 1" xmlns="http://www.w3.org/2000/svg" xmlns:xlink="http://www.w3.org/1999/xlink" viewBox="0 0 300 300"><defs><style>.cls-1{fill:url(#linear-gradient);}.cls-2{fill:#ed1c24;}.cls-3{fill:url(#Dégradé_knowledge);}.cls-4{fill:url(#Dégradé_Knowledge_2);}.cls-5{fill:url(#Dégradé_knowledge-2);}.cls-6{fill:url(#linear-gradient-3);}.cls-7{fill:url(#Dégradé_knowledge-3);}.cls-8{fill:url(#Dégradé_Knowledge_2-2);}</style><linearGradient id="linear-gradient" x1="156.33" y1="219.03" x2="162.07" y2="219.03" gradientTransform="matrix(1, 0, 0, -1, 14.36, 286.35)" gradientUnits="userSpaceOnUse"><stop offset="0" stop-color="#faa31a"/><stop offset="0.05" stop-color="#faa82b"/><stop offset="0.15" stop-color="#fcb755"/><stop offset="0.28" stop-color="#fdcf8f"/><stop offset="0.45" stop-color="#fdf0df"/><stop offset="0.5" stop-color="#fdfdfe"/><stop offset="0.63" stop-color="#fde4c3"/><stop offset="0.92" stop-color="#fbb042"/><stop offset="1" stop-color="#faa31a"/></linearGradient><linearGradient id="Dégradé_knowledge" x1="108.61" y1="238.47" x2="183.81" y2="235.48" gradientTransform="matrix(1, 0, 0, -1, 14.36, 286.35)" gradientUnits="userSpaceOnUse"><stop offset="0" stop-color="#e65c4f"/><stop offset="0.5" stop-color="#fff"/><stop offset="0.59" stop-color="#f8d4d0"/><stop offset="0.68" stop-color="#f2a9a2"/><stop offset="0.78" stop-color="#ed887e"/><stop offset="0.86" stop-color="#e97064"/><stop offset="0.94" stop-color="#e76154"/><stop offset="1" stop-color="#e65c4f"/></linearGradient><linearGradient id="Dégradé_Knowledge_2" x1="102.72" y1="134" x2="180.48" y2="195.53" gradientUnits="userSpaceOnUse"><stop offset="0" stop-color="#e65c4f"/><stop offset="0.5" stop-color="#78a6c8" stop-opacity="0.4"/><stop offset="0.6" stop-color="#9891a5" stop-opacity="0.57"/><stop offset="0.69" stop-color="#b47e86" stop-opacity="0.73"/><stop offset="0.78" stop-color="#ca6f6e" stop-opacity="0.84"/><stop offset="0.86" stop-color="#d9655d" stop-opacity="0.93"/><stop offset="0.94" stop-color="#e35e53" stop-opacity="0.98"/><stop offset="1" stop-color="#e65c4f"/></linearGradient><linearGradient id="Dégradé_knowledge-2" x1="140.4" y1="202.32" x2="95.11" y2="171.56" xlink:href="#Dégradé_knowledge"/><linearGradient id="linear-gradient-3" x1="52.19" y1="239.68" x2="147.04" y2="144.83" xlink:href="#linear-gradient"/><linearGradient id="Dégradé_knowledge-3" x1="57" y1="90.07" x2="66.4" y2="188.35" xlink:href="#Dégradé_knowledge"/><linearGradient id="Dégradé_Knowledge_2-2" x1="156.63" y1="72.59" x2="230.12" y2="140.1" xlink:href="#Dégradé_Knowledge_2"/></defs><path class="cls-1" d="M175.68,66.7a16.74,16.74,0,0,1-2.9.27,15.81,15.81,0,0,1-2.82-.25C171.92,66.63,173.8,66.62,175.68,66.7Z"/><path class="cls-2" d="M200.06,244.14l-1.73.59c-.29.1-.66.17-1,.27C198.25,244.71,199.2,244.44,200.06,244.14Z"/><path class="cls-1" d="M175.68,66.7a16.74,16.74,0,0,1-2.9.27,15.81,15.81,0,0,1-2.82-.25C171.92,66.63,173.8,66.62,175.68,66.7Z"/><path class="cls-3" d="M141.71,51.17a92.18,92.18,0,0,0-37.39,11.49,97.14,97.14,0,0,1,41-24.66,99.31,99.31,0,0,1,23.48-4.18c2.4-.09,4.79-.18,7.1-.1a16.91,16.91,0,0,1,13.72,16.36,16.39,16.39,0,0,1-2.36,8.64A91.61,91.61,0,0,0,141.71,51.17Z"/><path class="cls-4" d="M224.85,208.22c-.77.52-1.62,1-2.39,1.46h0a99.71,99.71,0,0,1-21.93,9.73c-42,12.78-85.81-4-108.48-38.27a16.89,16.89,0,0,0,1.08-9.66h0a50.24,50.24,0,0,1-1.81-5,51,51,0,0,1-1.64-6.23c-6.25-29.55,8.95-58.57,35-70.36a61.73,61.73,0,0,0-9.11,64.46c13.86,31.23,50.9,45,82.65,30.93,2-.86,3.92-1.9,5.8-2.93a50.85,50.85,0,0,0,4.52-2.83h0a17.06,17.06,0,0,1,11.45-.55c.68.25,1.37.51,2,.76a16.51,16.51,0,0,1,7.37,6.73A16.78,16.78,0,0,1,224.85,208.22Z"/><path class="cls-5" d="M187.28,58.63a17,17,0,0,1-11.51,8h0a42.16,42.16,0,0,0-5.73.1,64.24,64.24,0,0,0-45.47,23.13c-26,11.71-41.23,40.81-35,70.36.44,2.13,1,4.27,1.65,6.23a47.87,47.87,0,0,0,1.81,5h0A16.89,16.89,0,0,1,92,181.14a91.45,91.45,0,0,1-11.45-24.41c-10.45-34.31-.14-70.07,23.8-94.16a93.19,93.19,0,0,1,83-3.94Z"/><path class="cls-6" d="M187.28,58.63a17,17,0,0,1-11.51,8h0a42.16,42.16,0,0,0-5.73.1,64.24,64.24,0,0,0-45.47,23.13c-26,11.71-41.23,40.81-35,70.36.44,2.13,1,4.27,1.65,6.23a47.87,47.87,0,0,0,1.81,5h0A16.89,16.89,0,0,1,92,181.14c-.35-.6.31-7.78-.21-10.94h0a67.53,67.53,0,0,1-3.45-11.27c-6.25-29.55,9-58.56,35-70.35a64.25,64.25,0,0,1,45.48-23.14c2-.09,3.84-.1,5.72-.1h0C179.18,64.55,186.76,58.38,187.28,58.63Z"/><path class="cls-7" d="M104.32,62.57c-23.94,24.09-34.25,59.85-23.8,94.16A92.62,92.62,0,0,0,92,181.14a16.38,16.38,0,0,1-10.06,9.26,16.7,16.7,0,0,1-20.53-8.82c-.35-.86-.61-1.79-1-2.65h0a100.71,100.71,0,0,1-5-23.48A96.73,96.73,0,0,1,104.32,62.57Z"/><path class="cls-8" d="M243.67,163c-.33,2.4-.84,4.71-1.34,7a16.72,16.72,0,0,1-18.77,10,10.34,10.34,0,0,1-1.62-.42c-.69-.26-1.37-.51-2-.77a17,17,0,0,1-9.8-15.86h0c.43-1.88.85-3.76,1.1-5.64a64.9,64.9,0,0,0-.68-22.9c-7.2-34-40.17-55.84-73.56-48.73a67.29,67.29,0,0,0-12.46,4.06,64.36,64.36,0,0,1,23.27-17.68A65.16,65.16,0,0,1,170,66.63c2-.09,3.85-.09,5.73-.1h0a16.61,16.61,0,0,0,11.51-8,96.56,96.56,0,0,1,57.17,80.56A92.74,92.74,0,0,1,243.67,163Z"/></svg>