<svg id="Calque_1" data-name="Calque 1" xmlns="http://www.w3.org/2000/svg" xmlns:xlink="http://www.w3.org/1999/xlink" viewBox="0 0 300 300"><defs><style>.cls-1{fill:url(#linear-gradient);}.cls-2{fill:#ed1c24;}.cls-3{fill:url(#Dégradé_knowledge);}.cls-4{fill:url(#Dégradé_Knowledge_2);}.cls-5{fill:url(#Dégradé_knowledge-2);}.cls-6{fill:url(#linear-gradient-3);}.cls-7{fill:url(#Dégradé_knowledge-3);}.cls-8{fill:url(#Dégradé_Knowledge_2-2);}</style><linearGradient id="linear-gradient" x1="159.7" y1="209.29" x2="166.42" y2="209.29" gradientTransform="matrix(1, 0, 0, -1, 14.36, 286.35)" gradientUnits="userSpaceOnUse"><stop offset="0" stop-color="#faa31a"/><stop offset="0.05" stop-color="#faa82b"/><stop offset="0.15" stop-color="#fcb755"/><stop offset="0.28" stop-color="#fdcf8f"/><stop offset="0.45" stop-color="#fdf0df"/><stop offset="0.5" stop-color="#fdfdfe"/><stop offset="0.63" stop-color="#fde4c3"/><stop offset="0.92" stop-color="#fbb042"/><stop offset="1" stop-color="#faa31a"/></linearGradient><linearGradient id="Dégradé_knowledge" x1="103.85" y1="232.04" x2="191.85" y2="228.54" gradientTransform="matrix(1, 0, 0, -1, 14.36, 286.35)" gradientUnits="userSpaceOnUse"><stop offset="0" stop-color="#e65c4f"/><stop offset="0.5" stop-color="#fff"/><stop offset="0.59" stop-color="#f8d4d0"/><stop offset="0.68" stop-color="#f2a9a2"/><stop offset="0.78" stop-color="#ed887e"/><stop offset="0.86" stop-color="#e97064"/><stop offset="0.94" stop-color="#e76154"/><stop offset="1" stop-color="#e65c4f"/></linearGradient><linearGradient id="Dégradé_Knowledge_2" x1="94.67" y1="155.17" x2="185.67" y2="227.17" gradientUnits="userSpaceOnUse"><stop offset="0" stop-color="#e65c4f"/><stop offset="0.5" stop-color="#78a6c8" stop-opacity="0.4"/><stop offset="0.6" stop-color="#9891a5" stop-opacity="0.57"/><stop offset="0.69" stop-color="#b47e86" stop-opacity="0.73"/><stop offset="0.78" stop-color="#ca6f6e" stop-opacity="0.84"/><stop offset="0.86" stop-color="#d9655d" stop-opacity="0.93"/><stop offset="0.94" stop-color="#e35e53" stop-opacity="0.98"/><stop offset="1" stop-color="#e65c4f"/></linearGradient><linearGradient id="Dégradé_knowledge-2" x1="141.06" y1="189.73" x2="88.06" y2="153.73" xlink:href="#Dégradé_knowledge"/><linearGradient id="linear-gradient-3" x1="37.83" y1="233.45" x2="148.83" y2="122.45" xlink:href="#linear-gradient"/><linearGradient id="Dégradé_knowledge-3" x1="43.47" y1="58.38" x2="54.47" y2="173.38" xlink:href="#Dégradé_knowledge"/><linearGradient id="Dégradé_Knowledge_2-2" x1="157.76" y1="83.31" x2="243.76" y2="162.31" xlink:href="#Dégradé_Knowledge_2"/></defs><path class="cls-1" d="M180.05,76.42a20.57,20.57,0,0,1-3.4.31,19.36,19.36,0,0,1-3.3-.29C175.65,76.33,177.85,76.32,180.05,76.42Z"/><path class="cls-2" d="M209.14,261.2l-2,.7c-.34.11-.78.2-1.12.32C207,261.87,208.11,261.55,209.14,261.2Z"/><path class="cls-1" d="M180.05,76.42a20.57,20.57,0,0,1-3.4.31,19.36,19.36,0,0,1-3.3-.29C175.65,76.33,177.85,76.32,180.05,76.42Z"/><path class="cls-3" d="M140.3,58.25A107.63,107.63,0,0,0,96.54,71.69a113.63,113.63,0,0,1,48-28.86A115.89,115.89,0,0,1,172,37.94c2.8-.11,5.6-.22,8.3-.12A19.79,19.79,0,0,1,196.39,57a19.17,19.17,0,0,1-2.77,10.11A107.12,107.12,0,0,0,140.3,58.25Z"/><path class="cls-4" d="M237.59,242c-.9.6-1.9,1.2-2.8,1.7h0a116.24,116.24,0,0,1-25.66,11.39c-49.15,15-100.41-4.68-126.94-44.79A19.75,19.75,0,0,0,83.45,199h0a79,79,0,0,1-4-13.19c-7.31-34.58,10.48-68.53,40.93-82.33-17,20.65-22.14,49.67-10.65,75.43,16.21,36.55,59.57,52.71,96.71,36.19,2.3-1,4.59-2.22,6.79-3.43a58.36,58.36,0,0,0,5.29-3.31h0a20,20,0,0,1,13.4-.65c.8.3,1.6.6,2.3.9a19.26,19.26,0,0,1,8.62,7.87A19.63,19.63,0,0,1,237.59,242Z"/><path class="cls-5" d="M193.62,67a19.87,19.87,0,0,1-13.47,9.35h0a48.35,48.35,0,0,0-6.7.12,75.07,75.07,0,0,0-53.21,27.07C89.79,117.21,72,151.26,79.31,185.84c.51,2.5,1.22,5,1.92,7.29a61.66,61.66,0,0,0,2.12,5.9h0a19.75,19.75,0,0,1-1.26,11.3A106.78,106.78,0,0,1,68.7,181.77c-12.23-40.16-.17-82,27.84-110.18A109,109,0,0,1,193.62,67Z"/><path class="cls-6" d="M193.62,67a19.87,19.87,0,0,1-13.47,9.35h0a48.35,48.35,0,0,0-6.7.12,75.07,75.07,0,0,0-53.21,27.07C89.79,117.21,72,151.26,79.31,185.84c.51,2.5,1.22,5,1.92,7.29a61.66,61.66,0,0,0,2.12,5.9h0a19.75,19.75,0,0,1-1.26,11.3c-.4-.7.37-9.1-.24-12.8h0a56.48,56.48,0,0,1-2.12-5.89,60.28,60.28,0,0,1-1.93-7.3c-7.31-34.57,10.48-68.53,40.94-82.33A75.29,75.29,0,0,1,146,81.33a76.14,76.14,0,0,1,26-6.39c2.3-.11,4.5-.11,6.7-.12h0C184.14,73.9,193,66.67,193.62,67Z"/><path class="cls-7" d="M96.54,71.59c-28,28.19-40.07,70-27.84,110.18a108.25,108.25,0,0,0,13.39,28.56,19.17,19.17,0,0,1-11.77,10.84,19.55,19.55,0,0,1-24-10.33c-.4-1-.71-2.09-1.11-3.09h0a117.63,117.63,0,0,1-5.79-27.48A113.18,113.18,0,0,1,96.54,71.59Z"/><path class="cls-8" d="M259.62,189.16c-.4,2.8-1,5.5-1.58,8.2a19.55,19.55,0,0,1-22,11.67,10.55,10.55,0,0,1-1.9-.49c-.8-.3-1.6-.6-2.3-.9a19.88,19.88,0,0,1-11.46-18.56h0c.49-2.2,1-4.4,1.27-6.6a75.58,75.58,0,0,0-.78-26.8c-8.43-39.77-47-65.34-86.08-57a77.84,77.84,0,0,0-14.59,4.75,75.07,75.07,0,0,1,53.21-27.07c2.3-.11,4.5-.12,6.7-.12h0a19.44,19.44,0,0,0,13.47-9.35,113,113,0,0,1,66.9,94.28A108.12,108.12,0,0,1,259.62,189.16Z"/></svg>